grf
version=1
nRows=28
nColumns=46
inDegrees=yes
endheader
time	ground_force_1_vx	ground_force_1_vy	ground_force_1_vz	ground_force_1_px	ground_force_1_py	ground_force_1_pz	ground_moment_1_mx	ground_moment_1_my	ground_moment_1_mz	ground_force_2_vx	ground_force_2_vy	ground_force_2_vz	ground_force_2_px	ground_force_2_py	ground_force_2_pz	ground_moment_2_mx	ground_moment_2_my	ground_moment_2_mz	ground_force_3_vx	ground_force_3_vy	ground_force_3_vz	ground_force_3_px	ground_force_3_py	ground_force_3_pz	ground_moment_3_mx	ground_moment_3_my	ground_moment_3_mz	ground_force_4_vx	ground_force_4_vy	ground_force_4_vz	ground_force_4_px	ground_force_4_py	ground_force_4_pz	ground_moment_4_mx	ground_moment_4_my	ground_moment_4_mz	ground_force_5_vx	ground_force_5_vy	ground_force_5_vz	ground_force_5_px	ground_force_5_py	ground_force_5_pz	ground_moment_5_mx	ground_moment_5_my	ground_moment_5_mz
1.807500	0.000000	0.000000	0.000000	0.000000	0.000000	0.000000	0.000000	0.000000	0.000000	0.000000	0.000000	0.000000	0.000000	0.000000	0.000000	0.000000	0.000000	0.000000	0.000000	0.000000	0.000000	0.000000	0.000000	0.000000	0.000000	0.000000	0.000000	19.543544	588.444466	-118.665928	0.186264	0.000000	-0.887384	0.000000	6.078761	0.000000	0.720835	588.403228	132.042454	0.235142	0.000000	-1.588994	0.000000	-3.562814	-0.000000
1.808000	0.000000	0.000000	0.000000	0.000000	0.000000	0.000000	0.000000	0.000000	0.000000	0.000000	0.000000	0.000000	0.000000	0.000000	0.000000	0.000000	0.000000	0.000000	0.000000	0.000000	0.000000	0.000000	0.000000	0.000000	0.000000	0.000000	0.000000	19.568871	588.316485	-118.791421	0.186226	0.000000	-0.887374	0.000000	6.079599	0.000000	0.743255	588.199460	132.125636	0.235106	0.000000	-1.589007	0.000000	-3.562267	-0.000000
1.808500	0.000000	0.000000	0.000000	0.000000	0.000000	0.000000	0.000000	0.000000	0.000000	0.000000	0.000000	0.000000	0.000000	0.000000	0.000000	0.000000	0.000000	0.000000	0.000000	0.000000	0.000000	0.000000	0.000000	0.000000	0.000000	0.000000	0.000000	19.592539	588.187788	-118.917517	0.186187	0.000000	-0.887365	0.000000	6.080365	0.000000	0.766270	587.997762	132.207962	0.235068	0.000000	-1.589019	0.000000	-3.561715	-0.000000
1.809000	0.000000	0.000000	0.000000	0.000000	0.000000	0.000000	0.000000	0.000000	0.000000	0.000000	0.000000	0.000000	0.000000	0.000000	0.000000	0.000000	0.000000	0.000000	0.000000	0.000000	0.000000	0.000000	0.000000	0.000000	0.000000	0.000000	0.000000	19.614583	588.058372	-119.044149	0.186149	0.000000	-0.887355	0.000000	6.081062	0.000000	0.789910	587.798257	132.289415	0.235030	0.000000	-1.589031	0.000000	-3.561162	-0.000000
1.809500	0.000000	0.000000	0.000000	0.000000	0.000000	0.000000	0.000000	0.000000	0.000000	0.000000	0.000000	0.000000	0.000000	0.000000	0.000000	0.000000	0.000000	0.000000	0.000000	0.000000	0.000000	0.000000	0.000000	0.000000	0.000000	0.000000	0.000000	19.635038	587.928234	-119.171249	0.186110	0.000000	-0.887346	0.000000	6.081690	0.000000	0.814205	587.601067	132.369980	0.234992	0.000000	-1.589043	0.000000	-3.560611	-0.000000
1.810000	0.000000	0.000000	0.000000	0.000000	0.000000	0.000000	0.000000	0.000000	0.000000	0.000000	0.000000	0.000000	0.000000	0.000000	0.000000	0.000000	0.000000	0.000000	0.000000	0.000000	0.000000	0.000000	0.000000	0.000000	0.000000	0.000000	0.000000	19.653947	587.797356	-119.298750	0.186072	0.000000	-0.887337	0.000000	6.082250	0.000000	0.839187	587.406307	132.449645	0.234953	0.000000	-1.589055	0.000000	-3.560070	-0.000000
1.810500	0.000000	0.000000	0.000000	0.000000	0.000000	0.000000	0.000000	0.000000	0.000000	0.000000	0.000000	0.000000	0.000000	0.000000	0.000000	0.000000	0.000000	0.000000	0.000000	0.000000	0.000000	0.000000	0.000000	0.000000	0.000000	0.000000	0.000000	19.671360	587.665706	-119.426580	0.186035	0.000000	-0.887328	0.000000	6.082743	0.000000	0.864891	587.214090	132.528402	0.234913	0.000000	-1.589066	0.000000	-3.559545	-0.000000
1.811000	0.000000	0.000000	0.000000	0.000000	0.000000	0.000000	0.000000	0.000000	0.000000	0.000000	0.000000	0.000000	0.000000	0.000000	0.000000	0.000000	0.000000	0.000000	0.000000	0.000000	0.000000	0.000000	0.000000	0.000000	0.000000	0.000000	0.000000	19.687332	587.533230	-119.554669	0.185997	0.000000	-0.887319	0.000000	6.083169	0.000000	0.891352	587.024521	132.606244	0.234872	0.000000	-1.589077	0.000000	-3.559047	-0.000000
1.811500	0.000000	0.000000	0.000000	0.000000	0.000000	0.000000	0.000000	0.000000	0.000000	0.000000	0.000000	0.000000	0.000000	0.000000	0.000000	0.000000	0.000000	0.000000	0.000000	0.000000	0.000000	0.000000	0.000000	0.000000	0.000000	0.000000	0.000000	19.701922	587.399862	-119.682946	0.185959	0.000000	-0.887310	0.000000	6.083530	0.000000	0.918600	586.837694	132.683162	0.234831	0.000000	-1.589088	0.000000	-3.558584	-0.000000
1.812000	0.000000	0.000000	0.000000	0.000000	0.000000	0.000000	0.000000	0.000000	0.000000	0.000000	0.000000	0.000000	0.000000	0.000000	0.000000	0.000000	0.000000	0.000000	0.000000	0.000000	0.000000	0.000000	0.000000	0.000000	0.000000	0.000000	0.000000	19.715197	587.265531	-119.811339	0.185922	0.000000	-0.887302	0.000000	6.083828	0.000000	0.946666	586.653688	132.759152	0.234789	0.000000	-1.589098	0.000000	-3.558166	-0.000000
1.812500	0.000000	0.000000	0.000000	0.000000	0.000000	0.000000	0.000000	0.000000	0.000000	0.000000	0.000000	0.000000	0.000000	0.000000	0.000000	0.000000	0.000000	0.000000	0.000000	0.000000	0.000000	0.000000	0.000000	0.000000	0.000000	0.000000	0.000000	19.727227	587.130170	-119.939774	0.185885	0.000000	-0.887294	0.000000	6.084065	0.000000	0.975574	586.472581	132.834212	0.234747	0.000000	-1.589108	0.000000	-3.557802	-0.000000
1.813000	0.000000	0.000000	0.000000	0.000000	0.000000	0.000000	0.000000	0.000000	0.000000	0.000000	0.000000	0.000000	0.000000	0.000000	0.000000	0.000000	0.000000	0.000000	0.000000	0.000000	0.000000	0.000000	0.000000	0.000000	0.000000	0.000000	0.000000	19.738089	586.993731	-120.068175	0.185848	0.000000	-0.887286	0.000000	6.084244	0.000000	1.005347	586.294458	132.908344	0.234703	0.000000	-1.589117	0.000000	-3.557500	-0.000000
1.813500	0.000000	0.000000	0.000000	0.000000	0.000000	0.000000	0.000000	0.000000	0.000000	0.000000	0.000000	0.000000	0.000000	0.000000	0.000000	0.000000	0.000000	0.000000	0.000000	0.000000	0.000000	0.000000	0.000000	0.000000	0.000000	0.000000	0.000000	19.747864	586.856176	-120.196467	0.185811	0.000000	-0.887279	0.000000	6.084366	0.000000	1.036006	586.119418	132.981554	0.234659	0.000000	-1.589126	0.000000	-3.557267	-0.000000
1.814000	0.000000	0.000000	0.000000	0.000000	0.000000	0.000000	0.000000	0.000000	0.000000	0.000000	0.000000	0.000000	0.000000	0.000000	0.000000	0.000000	0.000000	0.000000	0.000000	0.000000	0.000000	0.000000	0.000000	0.000000	0.000000	0.000000	0.000000	19.756636	586.717479	-120.324572	0.185774	0.000000	-0.887271	0.000000	6.084433	0.000000	1.067567	585.947573	133.053849	0.234615	0.000000	-1.589134	0.000000	-3.557107	-0.000000
1.814500	0.000000	0.000000	0.000000	0.000000	0.000000	0.000000	0.000000	0.000000	0.000000	0.000000	0.000000	0.000000	0.000000	0.000000	0.000000	0.000000	0.000000	0.000000	0.000000	0.000000	0.000000	0.000000	0.000000	0.000000	0.000000	0.000000	0.000000	19.764495	586.577623	-120.452411	0.185737	0.000000	-0.887265	0.000000	6.084449	0.000000	1.100046	585.779036	133.125246	0.234569	0.000000	-1.589142	0.000000	-3.557024	-0.000000
1.815000	0.000000	0.000000	0.000000	0.000000	0.000000	0.000000	0.000000	0.000000	0.000000	0.000000	0.000000	0.000000	0.000000	0.000000	0.000000	0.000000	0.000000	0.000000	0.000000	0.000000	0.000000	0.000000	0.000000	0.000000	0.000000	0.000000	0.000000	19.771535	586.436600	-120.579902	0.185700	0.000000	-0.887258	0.000000	6.084414	0.000000	1.133456	585.613923	133.195775	0.234523	0.000000	-1.589149	0.000000	-3.557017	-0.000000
1.815500	0.000000	0.000000	0.000000	0.000000	0.000000	0.000000	0.000000	0.000000	0.000000	0.000000	0.000000	0.000000	0.000000	0.000000	0.000000	0.000000	0.000000	0.000000	0.000000	0.000000	0.000000	0.000000	0.000000	0.000000	0.000000	0.000000	0.000000	19.777847	586.294408	-120.706956	0.185663	0.000000	-0.887252	0.000000	6.084330	0.000000	1.167813	585.452344	133.265472	0.234477	0.000000	-1.589156	0.000000	-3.557086	-0.000000
1.816000	0.000000	0.000000	0.000000	0.000000	0.000000	0.000000	0.000000	0.000000	0.000000	0.000000	0.000000	0.000000	0.000000	0.000000	0.000000	0.000000	0.000000	0.000000	0.000000	0.000000	0.000000	0.000000	0.000000	0.000000	0.000000	0.000000	0.000000	19.783522	586.151043	-120.833488	0.185626	0.000000	-0.887246	0.000000	6.084199	0.000000	1.203132	585.294408	133.334374	0.234429	0.000000	-1.589163	0.000000	-3.557225	-0.000000
1.816500	0.000000	0.000000	0.000000	0.000000	0.000000	0.000000	0.000000	0.000000	0.000000	0.000000	0.000000	0.000000	0.000000	0.000000	0.000000	0.000000	0.000000	0.000000	0.000000	0.000000	0.000000	0.000000	0.000000	0.000000	0.000000	0.000000	0.000000	19.788648	586.006499	-120.959407	0.185590	0.000000	-0.887240	0.000000	6.084021	0.000000	1.239428	585.140222	133.402511	0.234381	0.000000	-1.589169	0.000000	-3.557431	-0.000000
1.817000	0.000000	0.000000	0.000000	0.000000	0.000000	0.000000	0.000000	0.000000	0.000000	0.000000	0.000000	0.000000	0.000000	0.000000	0.000000	0.000000	0.000000	0.000000	0.000000	0.000000	0.000000	0.000000	0.000000	0.000000	0.000000	0.000000	0.000000	19.793309	585.860761	-121.084627	0.185553	0.000000	-0.887235	0.000000	6.083797	0.000000	1.276712	584.989884	133.469912	0.234332	0.000000	-1.589174	-0.000000	-3.557702	-0.000000
1.817500	0.000000	0.000000	0.000000	0.000000	0.000000	0.000000	0.000000	0.000000	0.000000	0.000000	0.000000	0.000000	0.000000	0.000000	0.000000	0.000000	0.000000	0.000000	0.000000	0.000000	0.000000	0.000000	0.000000	0.000000	0.000000	0.000000	0.000000	19.797588	585.713805	-121.209067	0.185516	0.000000	-0.887231	0.000000	6.083531	0.000000	1.314997	584.843478	133.536602	0.234283	0.000000	-1.589179	-0.000000	-3.558035	-0.000000
1.818000	0.000000	0.000000	0.000000	0.000000	0.000000	0.000000	0.000000	0.000000	0.000000	0.000000	0.000000	0.000000	0.000000	0.000000	0.000000	0.000000	0.000000	0.000000	0.000000	0.000000	0.000000	0.000000	0.000000	0.000000	0.000000	0.000000	0.000000	19.801563	585.565601	-121.332648	0.185479	0.000000	-0.887226	0.000000	6.083225	0.000000	1.354299	584.701074	133.602606	0.234233	0.000000	-1.589183	-0.000000	-3.558428	-0.000000
1.818500	0.000000	0.000000	0.000000	0.000000	0.000000	0.000000	0.000000	0.000000	0.000000	0.000000	0.000000	0.000000	0.000000	0.000000	0.000000	0.000000	0.000000	0.000000	0.000000	0.000000	0.000000	0.000000	0.000000	0.000000	0.000000	0.000000	0.000000	19.805308	585.416112	-121.455293	0.185442	0.000000	-0.887222	0.000000	6.082885	0.000000	1.394641	584.562719	133.667946	0.234182	0.000000	-1.589187	-0.000000	-3.558880	-0.000000
1.819000	0.000000	0.000000	0.000000	0.000000	0.000000	0.000000	0.000000	0.000000	0.000000	0.000000	0.000000	0.000000	0.000000	0.000000	0.000000	0.000000	0.000000	0.000000	0.000000	0.000000	0.000000	0.000000	0.000000	0.000000	0.000000	0.000000	0.000000	19.808897	585.265310	-121.576924	0.185405	0.000000	-0.887219	0.000000	6.082513	0.000000	1.436047	584.428441	133.732636	0.234130	0.000000	-1.589190	-0.000000	-3.559389	-0.000000
1.819500	0.000000	0.000000	0.000000	0.000000	0.000000	0.000000	0.000000	0.000000	0.000000	0.000000	0.000000	0.000000	0.000000	0.000000	0.000000	0.000000	0.000000	0.000000	0.000000	0.000000	0.000000	0.000000	0.000000	0.000000	0.000000	0.000000	0.000000	19.812408	585.113175	-121.697469	0.185368	0.000000	-0.887216	0.000000	6.082116	0.000000	1.478538	584.298254	133.796680	0.234078	0.000000	-1.589193	-0.000000	-3.559954	-0.000000
1.820000	0.000000	0.000000	0.000000	0.000000	0.000000	0.000000	0.000000	0.000000	0.000000	0.000000	0.000000	0.000000	0.000000	0.000000	0.000000	0.000000	0.000000	0.000000	0.000000	0.000000	0.000000	0.000000	0.000000	0.000000	0.000000	0.000000	0.000000	19.815916	584.959695	-121.816859	0.185331	0.000000	-0.887213	0.000000	6.081701	0.000000	1.522133	584.172166	133.860072	0.234025	0.000000	-1.589195	-0.000000	-3.560575	-0.000000
1.820500	0.000000	0.000000	0.000000	0.000000	0.000000	0.000000	0.000000	0.000000	0.000000	0.000000	0.000000	0.000000	0.000000	0.000000	0.000000	0.000000	0.000000	0.000000	0.000000	0.000000	0.000000	0.000000	0.000000	0.000000	0.000000	0.000000	0.000000	19.819499	584.804856	-121.935030	0.185293	0.000000	-0.887211	0.000000	6.081276	0.000000	1.566846	584.050195	133.922799	0.233972	0.000000	-1.589197	-0.000000	-3.561253	-0.000000
1.821000	0.000000	0.000000	0.000000	0.000000	0.000000	0.000000	0.000000	0.000000	0.000000	0.000000	0.000000	0.000000	0.000000	0.000000	0.000000	0.000000	0.000000	0.000000	0.000000	0.000000	0.000000	0.000000	0.000000	0.000000	0.000000	0.000000	0.000000	19.823233	584.648632	-122.051918	0.185255	0.000000	-0.887209	0.000000	6.080851	0.000000	1.612687	583.932372	133.984844	0.233917	0.000000	-1.589198	-0.000000	-3.561989	-0.000000
